<svg height="512pt" viewBox="0 0 512 512" width="512pt" xmlns="http://www.w3.org/2000/svg"><path d="m210.457031 196.664062c-2.183593-3.386718-5.652343-5.734374-9.609375-6.5-3.960937-.761718-8.054687.117188-11.339844 2.449219-10.976562 7.773438-23.835937 12.550781-37.1875 13.8125-3.84375.367188-7.789062.433594-11.714843.199219-6.726563-.382812-12.890625 3.8125-14.945313 10.242188-6.546875 20.460937-25.390625 34.210937-46.890625 34.210937h-14.769531c-27.144531 0-49.230469 22.082031-49.230469 49.230469 0 27.144531 22.085938 49.230468 49.230469 49.230468h2.273438c6.585937 42.640626 27.359374 81.796876 59.363281 111.414063 35.570312 32.917969 81.867187 51.046875 130.363281 51.046875l9.855469-170.996094-9.855469-119.464844c-18.476562 0-35.503906-9.300781-45.542969-24.875zm0 0" fill="#fedbab"/><path d="m448 251.078125h-14.769531c-21.5 0-40.34375-13.75-46.890625-34.210937-2.054688-6.429688-8.199219-10.621094-14.945313-10.242188-13.445312.804688-26.964843-1.992188-39.097656-8.074219-3.070313-1.542969-6.222656-3.453125-9.921875-6.019531-3.289062-2.28125-7.367188-3.132812-11.292969-2.351562-3.925781.777343-7.371093 3.117187-9.539062 6.484374-10.039063 15.574219-27.066407 24.875-45.542969 24.875v290.460938c48.496094 0 94.792969-18.128906 130.363281-51.046875 32.003907-29.617187 52.777344-68.773437 59.363281-111.414063h2.273438c27.144531 0 49.230469-22.085937 49.230469-49.230468 0-27.148438-22.085938-49.230469-49.230469-49.230469zm0 0" fill="#fdc377"/><path d="m211.691406 354.460938c0 24.433593 19.878906 44.308593 44.308594 44.308593l9.855469-41.847656-9.855469-46.769531c-24.429688 0-44.308594 19.878906-44.308594 44.308594zm0 0" fill="#9575cd"/><path d="m256 310.152344v88.617187c24.429688 0 44.308594-19.875 44.308594-44.308593 0-24.429688-19.878906-44.308594-44.308594-44.308594zm0 0" fill="#7e57c2"/><path d="m206.773438 404.585938c-6.082032-5.441407-15.417969-4.921876-20.855469 1.152343-5.441407 6.078125-4.921875 15.417969 1.15625 20.855469 18.96875 16.980469 43.449219 26.328125 68.925781 26.328125l9.855469-13.292969-9.855469-16.246094c-18.199219 0-35.679688-6.675781-49.226562-18.796874zm0 0" fill="#53433f"/><path d="m326.082031 405.738281c-5.441406-6.078125-14.777343-6.59375-20.855469-1.152343-13.546874 12.121093-31.027343 18.796874-49.226562 18.796874v29.539063c25.476562 0 49.957031-9.347656 68.925781-26.328125 6.078125-5.4375 6.597657-14.777344 1.15625-20.855469zm0 0" fill="#3e322e"/><path d="m185.1875 32.433594c-12.625-5.136719-26.226562-7.816406-39.957031-7.816406-58.363281 0-105.847657 47.480468-105.847657 105.84375 0 1.042968.015626 2.085937.046876 3.128906-24.265626 13.917968-39.429688 39.65625-39.429688 68.257812 0 43.433594 35.335938 78.769532 78.769531 78.769532 30.632813 0 57.894531-17.453126 70.898438-44.402344 15.789062-.648438 31.019531-4.753906 44.847656-12.054688 15.703125 17.058594 37.820313 26.917969 61.484375 26.917969l9.855469-114.214844-9.855469-136.863281c-27.519531 0-53.160156 11.921875-70.8125 32.433594zm0 0" fill="#ec407a"/><path d="m472.570312 133.589844c.03125-1.042969.046876-2.085938.046876-3.128906 0-58.363282-47.484376-105.84375-105.847657-105.84375-13.730469 0-27.332031 2.679687-39.957031 7.816406-17.652344-20.511719-43.292969-32.433594-70.8125-32.433594v251.078125c23.664062 0 45.78125-9.859375 61.484375-26.917969 13.828125 7.300782 29.058594 11.40625 44.847656 12.054688 13.003907 26.949218 40.265625 44.402344 70.898438 44.402344 43.433593 0 78.769531-35.335938 78.769531-78.769532 0-28.601562-15.164062-54.339844-39.429688-68.257812zm0 0" fill="#d81b60"/><path d="m359.382812 315.078125c0-8.039063-3.871093-15.183594-9.84375-19.679687v-.015626c0-8.15625-6.613281-14.765624-14.769531-14.765624s-14.769531 6.609374-14.769531 14.765624v.015626c-5.976562 4.496093-9.847656 11.644531-9.847656 19.679687s3.871094 15.183594 9.847656 19.675781v.015625c0 8.15625 6.613281 14.769531 14.769531 14.769531s14.769531-6.613281 14.769531-14.769531v-.015625c5.972657-4.492187 9.84375-11.640625 9.84375-19.675781zm0 0" fill="#3e322e"/><path d="m192 334.769531v-.015625c5.976562-4.492187 9.847656-11.640625 9.847656-19.675781s-3.871094-15.183594-9.847656-19.679687v-.015626c0-8.15625-6.613281-14.765624-14.769531-14.765624s-14.769531 6.609374-14.769531 14.765624v.015626c-5.972657 4.496093-9.84375 11.644531-9.84375 19.679687s3.871093 15.183594 9.84375 19.675781v.015625c0 8.15625 6.613281 14.769531 14.769531 14.769531s14.769531-6.613281 14.769531-14.769531zm0 0" fill="#53433f"/></svg>